<svg version="1.1" id="Layer_1" xmlns="http://www.w3.org/2000/svg" xmlns:xlink="http://www.w3.org/1999/xlink" x="0px" y="0px"
	 width="100%" viewBox="0 0 1024 1024" enable-background="new 0 0 1024 1024" xml:space="preserve">
<path fill="#010000" opacity="1.000000" stroke="none" 
	d="
M673.000000,1025.000000 
	C448.666656,1025.000000 224.833328,1025.000000 1.000000,1025.000000 
	C1.000000,683.666687 1.000000,342.333344 1.000000,1.000000 
	C342.333344,1.000000 683.666687,1.000000 1025.000000,1.000000 
	C1025.000000,342.333344 1025.000000,683.666687 1025.000000,1025.000000 
	C907.833313,1025.000000 790.666687,1025.000000 673.000000,1025.000000 
M547.649231,259.854980 
	C548.291321,258.839386 548.933472,257.823822 549.726929,256.620911 
	C549.726929,256.620911 549.799255,256.391144 550.205811,255.899887 
	C551.540466,251.282806 552.875122,246.665726 554.983032,241.432968 
	C555.058228,239.273056 555.285156,237.106049 555.184570,234.954346 
	C554.387512,217.902695 540.521057,203.208420 523.307739,201.099121 
	C505.467743,198.913010 488.861755,209.376022 483.623901,226.102905 
	C478.267609,243.208023 485.342285,260.826538 501.262177,269.697693 
	C513.868713,275.860962 526.222168,276.071167 538.888184,267.980255 
	C541.649597,265.356964 544.410950,262.733704 547.072083,260.081390 
	C547.072083,260.081390 547.119629,260.174347 547.649231,259.854980 
M826.051208,726.880615 
	C825.686157,726.606079 825.321106,726.331482 824.601746,725.492920 
	C816.490967,718.892029 808.796936,711.679077 800.184814,705.814453 
	C780.727539,692.564697 759.308167,682.968201 737.433594,674.487549 
	C696.734009,658.708557 654.978638,648.439575 610.843323,651.977417 
	C590.728394,653.589783 571.995789,659.409119 555.931702,672.086975 
	C517.468994,702.442200 520.085449,757.946106 561.312073,783.551147 
	C566.684631,786.887939 573.073730,788.588135 579.523315,791.586975 
	C596.659058,795.992920 613.536255,796.231750 629.316589,787.076416 
	C643.414734,778.897034 652.293335,767.161255 652.102234,749.114868 
	C652.145813,738.361328 648.243103,729.143005 641.631042,721.176514 
	C639.748718,725.356445 638.403809,729.719910 636.011902,733.403687 
	C627.931152,745.849121 611.357788,750.962463 595.616150,746.172058 
	C585.698547,743.154053 578.325989,737.230896 576.495483,726.593140 
	C574.733093,716.351257 578.601318,707.607605 586.907349,701.703857 
	C592.207947,697.936340 598.406677,694.871277 604.658875,693.113098 
	C620.887939,688.549255 637.332275,690.044373 653.593994,693.539062 
	C682.557678,699.763489 709.614624,711.237732 736.382080,723.593567 
	C746.596558,728.308716 757.270142,732.029175 768.193542,736.777527 
	C770.394165,737.505798 772.549866,738.442749 774.802917,738.927856 
	C787.744324,741.713989 800.791931,744.055054 813.640076,747.212158 
	C824.540039,749.890564 835.218567,753.469727 846.389038,756.766541 
	C844.409912,753.382141 842.376404,749.904785 840.220459,745.676697 
	C839.833252,745.373962 839.446106,745.071228 839.074768,744.077148 
	C837.810486,742.359558 836.546265,740.641907 835.018250,738.316650 
	C834.094116,737.190491 833.169983,736.064331 832.032898,734.358887 
	C831.697388,733.871277 831.361816,733.383667 830.876526,732.301331 
	C830.301941,731.728821 829.727356,731.156311 829.120789,730.238281 
	C829.013733,729.982910 828.824463,729.882629 828.142700,729.339417 
	C827.446655,728.679138 826.750671,728.018921 826.051208,726.880615 
M853.699646,243.237183 
	C853.601257,239.094452 853.502930,234.951721 853.546021,230.080963 
	C853.442993,229.039062 853.340027,227.997162 853.218750,226.770355 
	C846.664368,229.967133 840.754883,233.456879 834.425964,235.826340 
	C812.320435,244.102356 790.106323,252.093277 767.863647,259.996155 
	C748.828125,266.759552 730.989441,275.505341 717.119019,290.650482 
	C701.080994,308.162323 693.926270,329.116608 693.930908,352.717957 
	C693.949402,446.850800 693.928833,540.983643 693.938049,635.116455 
	C693.938171,636.059143 694.145691,637.001831 694.266602,638.031494 
	C696.003479,638.031494 697.499878,638.031494 699.628662,638.478149 
	C707.749390,640.325439 715.870178,642.172729 724.571411,644.445801 
	C733.040649,647.647522 741.509888,650.849243 750.557983,654.658569 
	C754.605957,655.228943 752.564636,651.981934 752.571289,650.815796 
	C752.729492,623.031372 752.726196,595.245911 752.692749,567.460632 
	C752.684937,560.985474 752.460449,554.510620 752.626953,547.235229 
	C752.735779,535.738708 752.736938,535.741516 763.458435,531.334778 
	C766.657288,530.019958 769.823425,528.622192 773.047180,527.372620 
	C779.308411,524.945557 785.599792,522.596436 791.849182,521.125000 
	C791.819275,566.934753 792.222900,612.752014 791.432190,658.548584 
	C791.251221,669.029236 794.066467,675.014648 803.799377,677.906494 
	C804.117615,678.001099 804.440552,678.079834 805.127808,678.754700 
	C811.050232,682.255615 816.972595,685.756531 823.267578,689.815735 
	C832.441772,697.090210 841.615967,704.364685 851.033569,712.157166 
	C851.790588,712.628174 852.547607,713.099121 853.895081,713.937500 
	C853.635681,712.127869 853.478821,711.033569 853.463562,709.293335 
	C853.367432,708.874329 853.271362,708.455383 853.360413,707.495117 
	C853.287048,707.319092 853.213745,707.143066 853.379639,706.059814 
	C853.406311,586.811279 853.444763,467.562714 853.451599,348.314178 
	C853.453369,317.840942 853.354858,287.367676 853.584473,256.050018 
	C853.498108,253.114700 853.411804,250.179398 853.529419,246.639145 
	C853.467590,245.799866 853.405762,244.960571 853.699646,243.237183 
M482.780396,723.751465 
	C483.061493,722.086304 483.342560,720.421143 483.902283,718.125916 
	C486.244110,704.890564 491.460419,692.965210 499.698608,682.285645 
	C501.246887,680.278564 501.621155,677.365906 502.615753,674.117065 
	C502.904877,669.994934 500.570007,671.098022 498.171844,671.741333 
	C445.093231,685.979919 422.760956,745.814636 453.726227,791.182739 
	C462.628723,804.226074 474.445038,813.969788 489.317047,820.933105 
	C517.971558,834.452759 546.562988,834.536804 575.783508,820.258911 
	C578.332947,818.990784 580.882385,817.722717 583.431824,816.454651 
	C551.448242,817.506104 523.176636,810.104004 500.738800,785.388489 
	C495.800232,776.593872 490.861633,767.799194 485.942444,758.219910 
	C484.591614,747.482483 483.240814,736.745056 482.037384,725.413086 
	C482.046082,725.005066 482.054779,724.597046 482.780396,723.751465 
M405.766235,759.002502 
	C406.833038,748.074585 406.271271,737.385742 401.077454,726.268738 
	C401.394409,749.339172 394.600647,768.244507 372.238861,775.285706 
	C343.386963,784.370361 325.990570,769.102478 315.364136,742.245850 
	C312.698547,759.215332 315.953400,773.219543 327.093201,785.734131 
	C340.132355,798.902527 355.579956,804.169189 373.498627,798.304810 
	C391.912994,792.278259 402.398010,779.001892 405.766235,759.002502 
M671.300293,602.112488 
	C671.204224,592.742371 671.108093,583.372314 671.272766,573.103394 
	C671.272766,569.154175 671.272766,565.204956 671.272766,560.711243 
	C667.699646,562.429443 664.587646,563.898865 661.499146,565.416321 
	C653.044739,569.570129 644.600220,573.744141 636.236206,576.987610 
	C636.221985,518.932129 636.225037,460.876617 636.186279,402.821106 
	C636.167175,374.213776 636.070740,345.606537 636.201843,316.079224 
	C636.113708,309.045868 636.025513,302.012512 636.129761,294.136475 
	C636.129761,292.190582 636.129761,290.244720 636.129761,287.720612 
	C617.103455,296.451691 597.458679,300.103516 577.421265,301.331909 
	C577.421265,413.105713 577.421265,524.333618 577.421265,636.162415 
	C580.645447,633.836914 583.318237,631.909180 586.724426,629.951416 
	C600.852905,622.735901 616.038086,622.591187 631.060791,624.749390 
	C644.141602,626.628723 656.951721,630.392761 670.752502,633.572388 
	C670.896973,633.025818 671.041443,632.479187 671.431274,631.327820 
	C671.349304,630.908569 671.267334,630.489258 671.406860,629.177612 
	C671.321472,626.430237 671.236084,623.682861 671.417175,620.040100 
	C671.314270,614.372864 671.211365,608.705627 671.300293,602.112488 
M523.288696,571.022278 
	C513.390625,577.076904 503.907349,584.007935 493.479401,588.942932 
	C482.776154,594.008118 478.786499,600.760620 479.869232,612.693176 
	C481.116730,626.441833 480.159088,640.390564 480.159088,654.866211 
	C484.602051,652.042358 488.371429,649.646667 492.894073,647.199097 
	C503.766907,642.207642 515.062134,639.482178 526.749756,643.384766 
	C532.411743,645.275391 537.542175,648.758179 542.616943,651.367676 
	C542.616943,620.448425 542.616943,589.165955 542.616943,557.069336 
	C535.920593,562.032715 529.949707,566.458313 523.288696,571.022278 
M526.692871,560.911682 
	C530.866272,557.900574 534.958618,554.767517 539.241211,551.920776 
	C542.153870,549.984680 543.192749,547.658875 543.183716,544.092590 
	C543.070007,499.043304 543.133179,453.993591 543.131714,408.944000 
	C543.131592,405.293427 542.988770,401.642853 543.054810,397.132660 
	C542.920837,395.404816 542.786804,393.676941 542.757202,391.139313 
	C540.871643,369.645599 533.221008,350.895599 516.988892,336.066620 
	C505.116852,325.220886 490.851410,319.172607 475.658386,314.991669 
	C457.088348,309.881409 438.319214,305.449768 419.898926,299.858978 
	C410.841064,297.109802 402.375275,292.409912 393.392426,288.483917 
	C393.392426,308.448456 393.332031,328.378174 393.526672,348.305420 
	C393.539825,349.651611 395.200958,351.465271 396.562744,352.234253 
	C403.929321,356.393921 411.443176,360.292725 419.257996,364.852417 
	C438.893341,375.647186 458.528687,386.441956 478.729187,397.988007 
	C478.872681,398.957825 479.141937,399.927704 479.141541,400.897461 
	C479.128082,434.189270 479.091278,467.481049 479.044525,500.772858 
	C479.042938,501.901306 478.904205,503.029602 478.784424,504.835449 
	C469.165833,504.835449 459.719360,504.835449 449.928802,503.972382 
	C449.848145,502.321289 449.698914,500.670258 449.696930,499.019073 
	C449.662445,470.290344 449.652710,441.561615 449.608215,412.832916 
	C449.605682,411.206116 449.350037,409.579712 449.403046,407.021210 
	C449.771454,404.866302 449.381439,403.480286 446.673828,403.755005 
	C441.388306,404.291351 436.033661,404.342865 430.802521,405.184723 
	C405.659851,409.230835 393.795868,422.808746 393.556915,448.163971 
	C393.293579,476.101013 393.361237,504.041443 393.392517,531.980286 
	C393.394379,533.656616 393.831268,535.896790 394.943817,536.917908 
	C403.486633,544.758972 412.246948,552.363220 421.372070,560.696533 
	C423.272461,561.076355 425.172272,561.783752 427.073364,561.787109 
	C457.945557,561.841492 488.817963,561.821167 519.690186,561.759827 
	C521.798828,561.755676 523.906494,561.292603 526.692871,560.911682 
M372.009735,590.067200 
	C371.974609,583.447998 372.277008,576.804138 371.795746,570.217529 
	C371.421692,565.098267 370.070496,560.050415 369.021973,554.126709 
	C368.126465,549.933716 367.648041,545.597961 366.269470,541.570312 
	C355.141052,509.057678 322.483154,487.334564 285.257294,487.033630 
	C286.993011,485.996552 288.648041,484.782318 290.476776,483.949463 
	C311.696594,474.285187 331.604980,462.709137 346.752686,444.463470 
	C367.440277,419.544983 375.793243,391.119598 370.410187,358.077637 
	C368.780579,351.476288 367.833252,344.611603 365.404297,338.318817 
	C354.415192,309.849152 333.938904,289.782593 306.712006,277.331573 
	C286.825745,268.237488 265.836060,261.541016 245.283508,253.923508 
	C225.519165,246.598129 205.182449,240.644165 187.180878,229.184906 
	C185.579697,228.165634 183.932236,227.219055 182.027588,226.070663 
	C182.027588,247.476990 181.971497,268.288422 182.152817,289.097809 
	C182.165009,290.497162 183.971039,291.880920 185.359940,293.831757 
	C223.181046,308.651642 261.002136,323.471558 299.153778,338.945129 
	C299.817108,340.981384 300.782257,342.972229 301.096558,345.061005 
	C303.892212,363.641876 303.976868,382.282379 300.892365,400.794098 
	C297.935852,418.537933 289.967560,434.002716 274.872009,444.158722 
	C264.767303,450.957001 253.191223,455.572266 242.239258,461.096344 
	C241.664978,461.385956 240.769287,461.038391 240.234589,460.072418 
	C240.256882,439.487610 240.325989,418.902679 240.282669,398.317993 
	C240.259293,387.204926 240.043655,376.092255 239.925552,364.278625 
	C238.271057,363.202637 236.665604,362.040710 234.954453,361.064026 
	C218.644562,351.754639 202.316010,342.477936 185.995682,333.186798 
	C184.774078,332.491364 183.574463,331.757324 182.192200,330.939178 
	C182.192200,482.231598 182.192200,633.060364 182.192200,784.782776 
	C184.835663,782.521912 186.911697,780.746338 189.654984,778.825073 
	C192.125687,777.140991 194.496323,775.282227 197.082764,773.800110 
	C220.281204,760.506531 243.508545,747.263245 266.745483,734.036987 
	C289.438568,721.120300 312.115662,708.207092 330.952393,689.687927 
	C358.551086,662.554382 373.180145,630.090515 372.009735,590.067200 
M449.156708,609.163635 
	C449.768036,605.744324 448.511200,603.256287 445.960297,600.848938 
	C432.270538,587.929565 418.674561,574.908630 405.199036,561.766113 
	C401.583221,558.239624 398.502563,554.164490 395.176208,550.341187 
	C394.687164,550.757446 394.198120,551.173706 393.709076,551.589905 
	C393.709076,599.504822 393.709076,647.419739 393.709076,692.922241 
	C396.875031,690.403137 401.149780,687.001770 406.049347,683.304932 
	C417.895325,674.125671 431.146179,667.768677 445.441589,663.400085 
	C446.922363,662.947571 449.062286,661.124573 449.073059,659.921143 
	C449.222351,643.279053 449.052338,626.634094 449.156708,609.163635 
M422.529633,244.442657 
	C427.019012,244.443665 431.511536,244.549835 435.996887,244.416016 
	C440.450256,244.283142 443.434509,241.438324 443.624023,237.453888 
	C443.810181,233.539902 440.912415,230.489578 436.268280,230.346329 
	C428.625336,230.110596 420.971344,230.097321 413.324219,230.184097 
	C408.780334,230.235657 405.935974,233.112976 405.909363,237.207550 
	C405.882416,241.360672 408.632141,244.266022 413.074097,244.500809 
	C415.890900,244.649704 418.724213,244.487289 422.529633,244.442657 
M608.552002,230.126495 
	C606.222900,230.128830 603.890442,230.051102 601.565491,230.150024 
	C596.613953,230.360718 593.627502,233.137222 593.723694,237.320557 
	C593.819885,241.499359 596.868530,244.355438 601.687073,244.430084 
	C608.672668,244.538315 615.661987,244.512650 622.648254,244.424606 
	C627.570129,244.362595 630.791565,241.583694 630.856445,237.593414 
	C630.923157,233.493271 627.459656,230.314560 622.509766,230.168549 
	C618.187927,230.041092 613.859558,230.133072 608.552002,230.126495 
z"/>
<path fill="#FAFAFA" opacity="1.000000" stroke="none" 
	d="
M188.987732,778.970703 
	C186.911697,780.746338 184.835663,782.521912 182.192200,784.782776 
	C182.192200,633.060364 182.192200,482.231598 182.192200,330.939178 
	C183.574463,331.757324 184.774078,332.491364 185.995682,333.186798 
	C202.316010,342.477936 218.644562,351.754639 234.954453,361.064026 
	C236.665604,362.040710 238.271057,363.202637 239.580261,364.682861 
	C236.391876,367.332977 233.593811,369.638916 230.695984,371.811798 
	C225.318924,375.843689 223.690964,381.036774 223.796097,387.796539 
	C224.183411,412.703400 223.952576,437.619751 223.976135,462.532532 
	C223.977768,464.255615 224.158768,465.978485 224.323029,468.878448 
	C230.157837,465.945831 235.090530,463.466644 240.023224,460.987457 
	C240.769287,461.038391 241.664978,461.385956 242.239258,461.096344 
	C253.191223,455.572266 264.767303,450.957001 274.872009,444.158722 
	C289.967560,434.002716 297.935852,418.537933 300.892365,400.794098 
	C303.976868,382.282379 303.892212,363.641876 301.096558,345.061005 
	C300.782257,342.972229 299.817108,340.981384 299.010986,338.243164 
	C294.287964,325.840088 285.980743,317.321442 274.884216,312.089752 
	C262.313629,306.163025 249.357895,300.982269 236.333984,296.106567 
	C221.301895,290.479065 205.826248,287.199493 189.704254,291.113739 
	C188.040527,291.517700 186.526352,292.537720 184.942780,293.271912 
	C183.971039,291.880920 182.165009,290.497162 182.152817,289.097809 
	C181.971497,268.288422 182.027588,247.476990 182.027588,226.070663 
	C183.932236,227.219055 185.579697,228.165634 187.180878,229.184906 
	C205.182449,240.644165 225.519165,246.598129 245.283508,253.923508 
	C265.836060,261.541016 286.825745,268.237488 306.712006,277.331573 
	C333.938904,289.782593 354.415192,309.849152 365.404297,338.318817 
	C367.833252,344.611603 368.780579,351.476288 370.075745,358.495667 
	C369.506531,358.923859 369.271790,358.934052 368.996155,358.583191 
	C367.342316,355.102783 365.729309,351.983398 364.053009,348.524872 
	C362.655396,346.113312 361.594849,343.784790 359.937927,342.014343 
	C353.823029,335.480347 347.510864,329.131012 341.135040,322.560974 
	C340.773987,322.456665 340.550781,322.503601 340.327545,322.550507 
	C340.499512,322.747467 340.671478,322.944397 340.911438,323.502380 
	C342.986847,332.575623 344.994263,341.287781 346.974731,350.459778 
	C347.019440,354.601532 347.091064,358.283447 347.103241,362.432678 
	C347.026672,369.933746 347.009552,376.967499 346.963257,384.432678 
	C342.417816,436.099060 314.595123,469.566223 267.855743,488.837860 
	C273.747345,488.448456 279.638977,488.059021 285.530579,487.669617 
	C322.483154,487.334564 355.141052,509.057678 366.269470,541.570312 
	C367.648041,545.597961 368.126465,549.933716 368.805908,554.541260 
	C368.401917,554.954834 368.213928,554.953857 367.989929,554.601440 
	C366.694427,551.827209 365.434937,549.404480 364.036804,546.654907 
	C357.460785,534.353271 348.060974,525.310669 336.204437,518.336792 
	C335.906219,518.540222 335.783112,518.933228 335.754181,519.665894 
	C342.036041,529.777771 344.162598,540.842834 345.994202,552.444275 
	C346.293945,557.270447 346.630615,561.642395 346.947021,566.481812 
	C346.638885,580.962280 346.351074,594.975281 346.031616,609.407227 
	C345.337646,613.741638 344.746399,617.670654 344.001831,621.570496 
	C337.976227,653.130798 322.472443,679.356934 296.463776,697.907471 
	C276.250732,712.324341 254.028961,723.900452 232.955414,737.145569 
	C222.320663,743.829590 211.514359,750.587891 202.200089,758.898010 
	C196.424149,764.051331 193.301407,772.178467 188.987732,778.970703 
M239.017502,489.002411 
	C239.017502,489.002411 239.077835,488.974548 239.326935,488.241058 
	C240.309082,484.245148 241.291245,480.249237 242.538666,475.996704 
	C242.316193,475.949310 242.093735,475.901917 241.155334,475.941376 
	C237.425400,477.656891 233.803787,479.689728 229.938629,481.009125 
	C224.895035,482.730835 222.916290,485.848999 223.918411,491.932922 
	C223.938766,496.958038 223.959137,501.983154 223.933594,507.943695 
	C223.933594,571.462952 223.933594,634.982178 223.933594,699.992615 
	C230.191498,696.009460 235.150986,692.852722 240.808563,689.834656 
	C250.463623,684.030212 260.564728,678.844971 269.674164,672.283020 
	C285.174835,661.117249 296.070770,646.072205 299.565948,627.152039 
	C304.432953,600.805420 304.955109,574.014404 299.821411,547.731384 
	C294.086884,518.372314 266.525085,503.199707 240.107132,504.307434 
	C240.027298,503.192017 239.947479,502.076569 239.938095,500.049957 
	C239.911621,496.670074 239.885147,493.290161 239.752777,489.461365 
	C239.567123,489.197113 239.318558,489.022247 239.017502,489.002411 
z"/>
<path fill="#FBFBFA" opacity="1.000000" stroke="none" 
	d="
M804.761292,678.165955 
	C804.440552,678.079834 804.117615,678.001099 803.799377,677.906494 
	C794.066467,675.014648 791.251221,669.029236 791.432190,658.548584 
	C792.222900,612.752014 791.819275,566.934753 791.912598,520.191101 
	C791.976013,514.328979 791.976013,509.400787 791.976013,503.802979 
	C789.642700,504.471100 788.047852,504.773285 786.574402,505.373535 
	C771.370178,511.567749 756.266602,518.020691 740.947449,523.914307 
	C736.181519,525.747864 734.958496,528.354370 734.986633,533.165466 
	C735.170288,564.581604 735.077942,595.999451 735.000671,627.416565 
	C734.996033,629.300232 734.343262,631.182373 733.639893,632.903687 
	C726.151184,632.447205 718.923401,631.349304 711.911316,632.147217 
	C707.440979,632.655884 703.290283,635.973389 698.996277,638.031494 
	C697.499878,638.031494 696.003479,638.031494 694.266602,638.031494 
	C694.145691,637.001831 693.938171,636.059143 693.938049,635.116455 
	C693.928833,540.983643 693.949402,446.850800 693.930908,352.717957 
	C693.926270,329.116608 701.080994,308.162323 717.119019,290.650482 
	C730.989441,275.505341 748.828125,266.759552 767.863647,259.996155 
	C790.106323,252.093277 812.320435,244.102356 834.425964,235.826340 
	C840.754883,233.456879 846.664368,229.967133 853.218750,226.770355 
	C853.340027,227.997162 853.442993,229.039062 853.190186,230.575562 
	C850.401855,234.187668 847.374512,237.011490 845.660339,240.483582 
	C842.051575,247.793137 839.131348,255.442596 835.647644,263.234283 
	C834.912109,269.125122 834.064941,274.734009 834.060791,280.343445 
	C833.978271,392.631622 833.992432,504.919861 833.988281,617.208069 
	C833.987610,636.200439 834.004517,655.192749 833.978638,674.185120 
	C833.975647,676.358704 834.843994,679.207092 830.669312,678.898804 
	C821.946045,672.951599 813.363892,675.084900 804.761292,678.165955 
M791.985229,306.251404 
	C791.985229,301.354340 791.985229,296.457245 791.985229,290.141815 
	C784.072144,293.853973 777.179016,296.648712 770.704163,300.204956 
	C748.500000,312.400299 736.491089,331.247345 736.069092,356.653442 
	C735.623108,383.501038 735.955017,410.361603 735.948486,437.216492 
	C735.945068,451.301453 735.934692,465.386475 735.956116,479.471375 
	C735.958740,481.172729 736.141174,482.873810 736.282898,485.306488 
	C742.408997,482.254822 747.707458,479.615417 753.699829,476.800842 
	C760.617188,473.572479 767.537170,470.349915 774.450928,467.113892 
	C780.001709,464.515869 787.735107,463.283112 790.490295,458.915253 
	C793.383911,454.328125 791.670959,446.731201 791.686035,440.448883 
	C791.792969,396.035095 791.826416,351.621094 791.985229,306.251404 
z"/>
<path fill="#FAFAFA" opacity="1.000000" stroke="none" 
	d="
M420.939697,560.040955 
	C412.246948,552.363220 403.486633,544.758972 394.943817,536.917908 
	C393.831268,535.896790 393.394379,533.656616 393.392517,531.980286 
	C393.361237,504.041443 393.293579,476.101013 393.556915,448.163971 
	C393.795868,422.808746 405.659851,409.230835 430.802521,405.184723 
	C436.033661,404.342865 441.388306,404.291351 446.673828,403.755005 
	C449.381439,403.480286 449.771454,404.866302 448.987793,407.620483 
	C438.032043,417.057526 432.716888,428.155701 432.924591,442.109131 
	C433.211182,461.362640 432.986359,480.623596 433.006653,499.881378 
	C433.008331,501.458923 433.209717,503.036255 433.333588,504.835449 
	C439.357422,504.835449 444.815125,504.835449 450.272858,504.835449 
	C459.719360,504.835449 469.165833,504.835449 478.784424,504.835449 
	C478.904205,503.029602 479.042938,501.901306 479.044525,500.772858 
	C479.091278,467.481049 479.128082,434.189270 479.141541,400.897461 
	C479.141937,399.927704 478.872681,398.957825 478.833832,397.481262 
	C479.507996,385.974823 474.570587,377.321991 466.966339,370.054260 
	C457.431061,360.940887 445.040863,357.304779 432.612122,353.049011 
	C424.941010,349.867065 417.642853,346.747559 409.359039,343.206726 
	C410.422699,346.414032 410.938782,348.825623 411.993835,350.972321 
	C414.150879,355.361389 416.597656,359.608032 418.852295,364.001862 
	C418.779510,364.090424 418.906250,364.281494 418.906250,364.281494 
	C411.443176,360.292725 403.929321,356.393921 396.562744,352.234253 
	C395.200958,351.465271 393.539825,349.651611 393.526672,348.305420 
	C393.332031,328.378174 393.392426,308.448456 393.392426,288.483917 
	C402.375275,292.409912 410.841064,297.109802 419.898926,299.858978 
	C438.319214,305.449768 457.088348,309.881409 475.658386,314.991669 
	C490.851410,319.172607 505.116852,325.220886 516.988892,336.066620 
	C533.221008,350.895599 540.871643,369.645599 542.438354,391.515594 
	C541.763306,391.904663 541.407166,391.917450 541.041748,391.531799 
	C539.054871,378.475128 525.386230,356.734344 517.098938,353.549469 
	C517.616394,354.841461 517.936646,355.912292 518.450256,356.880646 
	C522.425720,364.376617 524.089966,372.348816 524.076843,380.832947 
	C523.991516,435.888519 524.013306,490.944305 523.531372,546.005310 
	C492.455566,545.644104 461.848419,545.277649 430.954529,544.666992 
	C422.129913,542.572571 415.491425,537.419617 408.968689,531.820496 
	C408.814850,531.618591 408.713440,531.570374 408.612030,531.522095 
	C408.731812,531.689331 408.851593,531.856567 408.920898,532.421631 
	C411.859009,539.257812 414.847595,545.696167 417.876770,552.409729 
	C418.215088,553.129272 418.512878,553.573669 418.887970,554.299683 
	C419.301392,555.033020 419.637512,555.484802 420.190979,556.182983 
	C420.930450,557.614929 421.452515,558.800415 421.713654,559.958008 
	C421.281738,559.966980 421.110718,560.003967 420.939697,560.040955 
z"/>
<path fill="#FAFAF9" opacity="1.000000" stroke="none" 
	d="
M578.991943,791.046387 
	C573.073730,788.588135 566.684631,786.887939 561.312073,783.551147 
	C520.085449,757.946106 517.468994,702.442200 555.931702,672.086975 
	C571.995789,659.409119 590.728394,653.589783 610.843323,651.977417 
	C654.978638,648.439575 696.734009,658.708557 737.433594,674.487549 
	C759.308167,682.968201 780.727539,692.564697 800.184814,705.814453 
	C808.796936,711.679077 816.490967,718.892029 824.588623,726.072144 
	C818.739380,728.528748 812.903137,730.406250 806.684570,732.324402 
	C799.874939,733.275818 793.447693,734.186584 786.624817,735.225708 
	C783.450317,735.546448 780.673767,735.793579 777.891785,735.916809 
	C774.508484,736.066772 771.120483,736.112244 767.734558,736.202881 
	C757.270142,732.029175 746.596558,728.308716 736.382080,723.593567 
	C709.614624,711.237732 682.557678,699.763489 653.593994,693.539062 
	C637.332275,690.044373 620.887939,688.549255 604.658875,693.113098 
	C598.406677,694.871277 592.207947,697.936340 586.907349,701.703857 
	C578.601318,707.607605 574.733093,716.351257 576.495483,726.593140 
	C578.325989,737.230896 585.698547,743.154053 595.616150,746.172058 
	C611.357788,750.962463 627.931152,745.849121 636.011902,733.403687 
	C638.403809,729.719910 639.748718,725.356445 641.631042,721.176514 
	C648.243103,729.143005 652.145813,738.361328 651.705322,749.529053 
	C650.055298,748.052124 648.802185,746.161011 647.870605,744.755188 
	C642.841675,753.097229 639.474609,760.814209 634.243591,766.939209 
	C621.309387,782.083740 603.714294,787.792236 584.357849,789.134583 
	C582.533813,789.261108 580.778931,790.385376 578.991943,791.046387 
z"/>
<path fill="#FAFAFA" opacity="1.000000" stroke="none" 
	d="
M585.990967,629.981445 
	C583.318237,631.909180 580.645447,633.836914 577.421265,636.162415 
	C577.421265,524.333618 577.421265,413.105713 577.421265,301.331909 
	C597.458679,300.103516 617.103455,296.451691 636.129761,287.720612 
	C636.129761,290.244720 636.129761,292.190582 635.686646,294.569702 
	C626.622803,303.641113 620.177673,313.414764 619.032166,326.441772 
	C618.987976,414.101685 618.987976,501.297485 618.987976,589.142822 
	C624.870117,585.293335 630.510925,581.601746 636.151794,577.910156 
	C644.600220,573.744141 653.044739,569.570129 661.499146,565.416321 
	C664.587646,563.898865 667.699646,562.429443 671.272766,560.711243 
	C671.272766,565.204956 671.272766,569.154175 670.911621,573.521362 
	C670.550476,573.939392 670.085449,573.914490 669.733276,573.940308 
	C665.592529,578.274841 660.478821,582.011475 658.315918,587.021973 
	C654.781799,595.208801 653.170105,604.225464 650.790283,612.738708 
	C637.748474,604.411499 623.079102,601.865417 607.554016,608.011963 
	C597.214844,612.105408 590.105103,619.641052 585.990967,629.981445 
z"/>
<path fill="#CFD0CE" opacity="1.000000" stroke="none" 
	d="
M830.981567,679.077637 
	C834.843994,679.207092 833.975647,676.358704 833.978638,674.185120 
	C834.004517,655.192749 833.987610,636.200439 833.988281,617.208069 
	C833.992432,504.919861 833.978271,392.631622 834.060791,280.343445 
	C834.064941,274.734009 834.912109,269.125122 835.900635,263.493286 
	C838.506042,262.900818 840.656799,262.524994 842.631897,261.718964 
	C846.243530,260.245087 849.751343,258.516724 853.302429,256.894470 
	C853.354858,287.367676 853.453369,317.840942 853.451599,348.314178 
	C853.444763,467.562714 853.406311,586.811279 853.079834,706.614685 
	C852.911743,707.458496 853.043518,707.747437 853.175232,708.036377 
	C853.271362,708.455383 853.367432,708.874329 853.009460,709.729126 
	C851.966980,710.656311 851.378601,711.147705 850.790222,711.639160 
	C841.615967,704.364685 832.441772,697.090210 823.103638,689.134644 
	C824.182678,686.527649 825.260864,684.463928 826.720520,682.719238 
	C827.902771,681.306213 829.543945,680.277039 830.981567,679.077637 
z"/>
<path fill="#F8F9F8" opacity="1.000000" stroke="none" 
	d="
M488.923248,820.402039 
	C474.445038,813.969788 462.628723,804.226074 453.726227,791.182739 
	C422.760956,745.814636 445.093231,685.979919 498.171844,671.741333 
	C500.570007,671.098022 502.904877,669.994934 502.254333,674.550598 
	C482.010559,690.514221 471.404480,710.598938 471.849854,736.539917 
	C471.872620,741.065002 471.388550,745.261658 472.063416,749.262878 
	C474.385132,763.028137 478.941803,775.883728 488.988678,786.519104 
	C491.599762,789.605652 494.160553,792.366516 496.452606,794.837646 
	C498.242981,791.321716 499.589172,788.678040 500.935364,786.034363 
	C523.176636,810.104004 551.448242,817.506104 583.431824,816.454651 
	C580.882385,817.722717 578.332947,818.990784 575.295410,820.052368 
	C572.579651,820.077637 570.275452,820.019836 568.136108,820.585510 
	C543.104187,827.204529 518.152588,826.999573 493.213043,820.068848 
	C491.914276,819.707886 490.359070,820.269775 488.923248,820.402039 
z"/>
<path fill="#CECECC" opacity="1.000000" stroke="none" 
	d="
M636.193970,577.448853 
	C630.510925,581.601746 624.870117,585.293335 618.987976,589.142822 
	C618.987976,501.297485 618.987976,414.101685 619.417419,326.440369 
	C625.267212,325.708618 626.221130,320.690430 628.641052,317.815521 
	C631.283752,317.522736 633.646484,317.260986 636.009277,316.999237 
	C636.070740,345.606537 636.167175,374.213776 636.186279,402.821106 
	C636.225037,460.876617 636.221985,518.932129 636.193970,577.448853 
z"/>
<path fill="#F8F8F8" opacity="1.000000" stroke="none" 
	d="
M405.424500,683.600403 
	C401.149780,687.001770 396.875031,690.403137 393.709076,692.922241 
	C393.709076,647.419739 393.709076,599.504822 393.709076,551.589905 
	C394.198120,551.173706 394.687164,550.757446 395.176208,550.341187 
	C398.502563,554.164490 401.583221,558.239624 405.199036,561.766113 
	C418.674561,574.908630 432.270538,587.929565 445.960297,600.848938 
	C448.511200,603.256287 449.768036,605.744324 448.715332,609.609009 
	C445.084473,613.565491 441.575562,616.840881 438.773193,620.637756 
	C433.207458,628.178467 432.180695,637.205261 432.229767,646.150879 
	C432.255829,650.909546 430.791351,653.912781 426.995178,656.350281 
	C418.891602,661.553589 412.613800,668.556396 407.800964,676.831421 
	C406.620148,678.861694 406.196350,681.332275 405.424500,683.600403 
z"/>
<path fill="#CFD0CC" opacity="1.000000" stroke="none" 
	d="
M189.321350,778.897888 
	C193.301407,772.178467 196.424149,764.051331 202.200089,758.898010 
	C211.514359,750.587891 222.320663,743.829590 232.955414,737.145569 
	C254.028961,723.900452 276.250732,712.324341 296.463776,697.907471 
	C322.472443,679.356934 337.976227,653.130798 344.001831,621.570496 
	C344.746399,617.670654 345.337646,613.741638 346.402313,609.399963 
	C349.100891,606.033142 353.297302,603.094666 353.300812,600.151184 
	C353.308319,593.869080 356.167694,595.350586 358.951599,596.487305 
	C361.627380,593.668335 363.925262,591.247498 365.819641,589.251770 
	C368.294250,589.966003 370.067657,590.477905 371.841064,590.989746 
	C373.180145,630.090515 358.551086,662.554382 330.952393,689.687927 
	C312.115662,708.207092 289.438568,721.120300 266.745483,734.036987 
	C243.508545,747.263245 220.281204,760.506531 197.082764,773.800110 
	C194.496323,775.282227 192.125687,777.140991 189.321350,778.897888 
M361.441284,598.707703 
	C361.709290,598.988831 361.977295,599.269958 362.245300,599.551086 
	C362.361694,599.440002 362.585297,599.238403 362.578918,599.230835 
	C362.328766,598.934326 362.057678,598.655457 361.441284,598.707703 
z"/>
<path fill="#FAFAFA" opacity="1.000000" stroke="none" 
	d="
M500.884216,269.087402 
	C485.342285,260.826538 478.267609,243.208023 483.623901,226.102905 
	C488.861755,209.376022 505.467743,198.913010 523.307739,201.099121 
	C540.521057,203.208420 554.387512,217.902695 555.184570,234.954346 
	C555.285156,237.106049 555.058228,239.273056 554.460205,241.348114 
	C553.570557,240.858582 553.203796,240.453903 552.823792,239.691818 
	C552.254578,237.762756 551.698608,236.191116 550.934998,234.032562 
	C549.697693,238.120682 549.028320,241.381714 547.749268,244.382904 
	C540.985840,260.252686 527.742981,266.373108 511.624023,268.025116 
	C508.045380,268.391937 504.464233,268.733978 500.884216,269.087402 
z"/>
<path fill="#CECECC" opacity="1.000000" stroke="none" 
	d="
M524.000000,546.000000 
	C524.013306,490.944305 523.991516,435.888519 524.076843,380.832947 
	C524.089966,372.348816 522.425720,364.376617 518.450256,356.880646 
	C517.936646,355.912292 517.616394,354.841461 517.098938,353.549469 
	C525.386230,356.734344 539.054871,378.475128 541.020386,391.945129 
	C541.642944,394.501984 542.277649,396.247131 542.912292,397.992279 
	C542.988770,401.642853 543.131592,405.293427 543.131714,408.944000 
	C543.133179,453.993591 543.070007,499.043304 543.183716,544.092590 
	C543.192749,547.658875 542.153870,549.984680 539.241211,551.920776 
	C534.958618,554.767517 530.866272,557.900574 526.055359,560.712891 
	C522.933228,560.350281 520.448669,560.186523 517.933167,559.658691 
	C515.470154,555.694702 513.493530,555.764893 511.567444,560.033508 
	C506.054749,560.037781 501.011292,560.031067 495.935486,559.656921 
	C494.463806,558.156677 493.024414,557.023987 491.585052,555.891296 
	C491.795410,555.305725 492.005768,554.720154 492.216095,554.134583 
	C495.155884,554.265625 498.101837,554.318787 501.033447,554.552063 
	C503.416626,554.741699 505.907349,555.767456 508.128723,555.320618 
	C512.066406,554.528381 515.801514,552.780701 519.687012,551.660461 
	C522.651184,550.805847 524.182739,549.123108 524.000000,546.000000 
z"/>
<path fill="#CDCECA" opacity="1.000000" stroke="none" 
	d="
M733.992126,633.065186 
	C734.343262,631.182373 734.996033,629.300232 735.000671,627.416565 
	C735.077942,595.999451 735.170288,564.581604 734.986633,533.165466 
	C734.958496,528.354370 736.181519,525.747864 740.947449,523.914307 
	C756.266602,518.020691 771.370178,511.567749 786.574402,505.373535 
	C788.047852,504.773285 789.642700,504.471100 791.976013,503.802979 
	C791.976013,509.400787 791.976013,514.328979 791.927368,519.736145 
	C785.599792,522.596436 779.308411,524.945557 773.047180,527.372620 
	C769.823425,528.622192 766.657288,530.019958 763.458435,531.334778 
	C752.736938,535.741516 752.735779,535.738708 752.151855,547.803833 
	C751.447754,550.130676 751.021362,551.888733 751.019226,553.647278 
	C750.981323,584.853821 751.016174,616.060486 750.953735,647.266968 
	C750.949158,649.528931 750.318604,651.789673 749.979126,654.050964 
	C741.509888,650.849243 733.040649,647.647522 724.511902,643.974792 
	C726.739136,643.623596 729.025879,643.743408 731.312622,643.863220 
	C731.377930,643.539917 731.443176,643.216675 731.508484,642.893372 
	C730.429382,642.234558 729.350342,641.575745 728.909058,641.306335 
	C730.738586,638.340088 732.365356,635.702637 733.992126,633.065186 
z"/>
<path fill="#CDCECA" opacity="1.000000" stroke="none" 
	d="
M369.037048,358.944244 
	C369.271790,358.934052 369.506531,358.923859 370.093384,358.928650 
	C375.793243,391.119598 367.440277,419.544983 346.752686,444.463470 
	C331.604980,462.709137 311.696594,474.285187 290.476776,483.949463 
	C288.648041,484.782318 286.993011,485.996552 285.393921,487.351624 
	C279.638977,488.059021 273.747345,488.448456 267.855743,488.837860 
	C314.595123,469.566223 342.417816,436.099060 347.320892,384.393921 
	C349.981903,381.655731 352.256104,379.387726 355.010406,376.640930 
	C355.771912,377.349365 357.194794,378.673065 359.482697,380.801453 
	C359.063080,378.604889 358.858917,377.536194 358.654755,376.467529 
	C358.988770,376.716919 359.322784,376.966339 359.656799,377.215759 
	C362.481506,373.639008 365.306213,370.062286 368.633606,365.849060 
	C368.882629,366.805542 369.085114,367.583344 369.287628,368.361115 
	C369.627533,368.145966 369.967468,367.930847 370.307404,367.715698 
	C369.861450,365.133728 369.415497,362.551727 368.980530,359.713135 
	C369.006653,359.285797 369.021851,359.115021 369.037048,358.944244 
M367.697235,371.077911 
	C367.436401,371.589996 367.175568,372.102112 366.914764,372.614227 
	C367.657501,372.610321 368.400269,372.606415 369.143005,372.602539 
	C368.876404,372.093079 368.609802,371.583618 367.697235,371.077911 
z"/>
<path fill="#F8F9F8" opacity="1.000000" stroke="none" 
	d="
M492.140808,647.250977 
	C488.371429,649.646667 484.602051,652.042358 480.159088,654.866211 
	C480.159088,640.390564 481.116730,626.441833 479.869232,612.693176 
	C478.786499,600.760620 482.776154,594.008118 493.479401,588.942932 
	C503.907349,584.007935 513.390625,577.076904 523.627441,571.429321 
	C523.966248,589.710876 523.966248,607.585388 523.966248,625.375183 
	C514.755005,627.487000 506.142059,629.751343 499.758972,636.266113 
	C496.684814,639.403748 494.647583,643.557434 492.140808,647.250977 
z"/>
<path fill="#CACBC9" opacity="1.000000" stroke="none" 
	d="
M492.517456,647.225037 
	C494.647583,643.557434 496.684814,639.403748 499.758972,636.266113 
	C506.142059,629.751343 514.755005,627.487000 523.966248,625.375183 
	C523.966248,607.585388 523.966248,589.710876 523.972534,571.360107 
	C529.949707,566.458313 535.920593,562.032715 542.616943,557.069336 
	C542.616943,589.165955 542.616943,620.448425 542.616943,651.367676 
	C537.542175,648.758179 532.411743,645.275391 526.749756,643.384766 
	C515.062134,639.482178 503.766907,642.207642 492.517456,647.225037 
z"/>
<path fill="#C7C7C4" opacity="1.000000" stroke="none" 
	d="
M586.357666,629.966431 
	C590.105103,619.641052 597.214844,612.105408 607.554016,608.011963 
	C623.079102,601.865417 637.748474,604.411499 650.790283,612.738708 
	C653.170105,604.225464 654.781799,595.208801 658.315918,587.021973 
	C660.478821,582.011475 665.592529,578.274841 669.706665,574.417725 
	C670.022888,582.577942 669.948975,590.287537 670.054504,597.994690 
	C670.077515,599.680420 670.740295,601.357361 671.108398,603.038391 
	C671.211365,608.705627 671.314270,614.372864 670.965637,620.746155 
	C670.737854,624.324829 670.961609,627.197388 671.185364,630.070007 
	C671.267334,630.489258 671.349304,630.908569 671.015991,631.781738 
	C670.360962,632.598450 670.121155,632.961243 669.881348,633.324036 
	C656.951721,630.392761 644.141602,626.628723 631.060791,624.749390 
	C616.038086,622.591187 600.852905,622.735901 586.357666,629.966431 
z"/>
<path fill="#C7C7C4" opacity="1.000000" stroke="none" 
	d="
M185.151352,293.551819 
	C186.526352,292.537720 188.040527,291.517700 189.704254,291.113739 
	C205.826248,287.199493 221.301895,290.479065 236.333984,296.106567 
	C249.357895,300.982269 262.313629,306.163025 274.884216,312.089752 
	C285.980743,317.321442 294.287964,325.840088 298.845703,337.916321 
	C261.002136,323.471558 223.181046,308.651642 185.151352,293.551819 
z"/>
<path fill="#CFD0CE" opacity="1.000000" stroke="none" 
	d="
M240.128906,460.529938 
	C235.090530,463.466644 230.157837,465.945831 224.323029,468.878448 
	C224.158768,465.978485 223.977768,464.255615 223.976135,462.532532 
	C223.952576,437.619751 224.183411,412.703400 223.796097,387.796539 
	C223.690964,381.036774 225.318924,375.843689 230.695984,371.811798 
	C233.593811,369.638916 236.391876,367.332977 239.574860,365.033234 
	C240.043655,376.092255 240.259293,387.204926 240.282669,398.317993 
	C240.325989,418.902679 240.256882,439.487610 240.128906,460.529938 
z"/>
<path fill="#F5F5F4" opacity="1.000000" stroke="none" 
	d="
M326.828491,785.111572 
	C315.953400,773.219543 312.698547,759.215332 315.364136,742.245850 
	C325.990570,769.102478 343.386963,784.370361 372.238861,775.285706 
	C394.600647,768.244507 401.394409,749.339172 401.077454,726.268738 
	C406.271271,737.385742 406.833038,748.074585 405.286072,759.458618 
	C404.224976,760.430847 403.548889,760.872498 403.077759,761.474609 
	C398.326324,767.546204 394.291443,774.369019 388.747284,779.592529 
	C374.703003,792.824341 355.155060,794.572571 338.060089,785.085022 
	C334.578369,783.152710 331.119873,781.178406 327.777893,779.295105 
	C327.402100,781.597412 327.115295,783.354492 326.828491,785.111572 
z"/>
<path fill="#C9C9C6" opacity="1.000000" stroke="none" 
	d="
M450.100830,504.403931 
	C444.815125,504.835449 439.357422,504.835449 433.333588,504.835449 
	C433.209717,503.036255 433.008331,501.458923 433.006653,499.881378 
	C432.986359,480.623596 433.211182,461.362640 432.924591,442.109131 
	C432.716888,428.155701 438.032043,417.057526 448.892334,408.086426 
	C449.350037,409.579712 449.605682,411.206116 449.608215,412.832916 
	C449.652710,441.561615 449.662445,470.290344 449.696930,499.019073 
	C449.698914,500.670258 449.848145,502.321289 450.100830,504.403931 
z"/>
<path fill="#CDCECA" opacity="1.000000" stroke="none" 
	d="
M405.736938,683.452637 
	C406.196350,681.332275 406.620148,678.861694 407.800964,676.831421 
	C412.613800,668.556396 418.891602,661.553589 426.995178,656.350281 
	C430.791351,653.912781 432.255829,650.909546 432.229767,646.150879 
	C432.180695,637.205261 433.207458,628.178467 438.773193,620.637756 
	C441.575562,616.840881 445.084473,613.565491 448.617188,610.022095 
	C449.052338,626.634094 449.222351,643.279053 449.073059,659.921143 
	C449.062286,661.124573 446.922363,662.947571 445.441589,663.400085 
	C431.146179,667.768677 417.895325,674.125671 405.736938,683.452637 
z"/>
<path fill="#C9C9C6" opacity="1.000000" stroke="none" 
	d="
M432.985107,353.111450 
	C445.040863,357.304779 457.431061,360.940887 466.966339,370.054260 
	C474.570587,377.321991 479.507996,385.974823 478.551270,397.105621 
	C458.528687,386.441956 438.893341,375.647186 419.082123,364.566956 
	C418.906250,364.281494 418.779510,364.090424 419.253662,364.019043 
	C420.874908,362.929382 422.367523,362.109253 423.090881,360.847992 
	C424.277252,358.779297 424.763733,356.707275 428.145874,357.765564 
	C431.828888,358.917969 433.353760,356.738373 432.985107,353.111450 
z"/>
<path fill="#CDCECA" opacity="1.000000" stroke="none" 
	d="
M579.257629,791.316650 
	C580.778931,790.385376 582.533813,789.261108 584.357849,789.134583 
	C603.714294,787.792236 621.309387,782.083740 634.243591,766.939209 
	C639.474609,760.814209 642.841675,753.097229 647.870605,744.755188 
	C648.802185,746.161011 650.055298,748.052124 651.645874,749.969360 
	C652.293335,767.161255 643.414734,778.897034 629.316589,787.076416 
	C613.536255,796.231750 596.659058,795.992920 579.257629,791.316650 
z"/>
<path fill="#C9C9C6" opacity="1.000000" stroke="none" 
	d="
M371.925415,590.528442 
	C370.067657,590.477905 368.294250,589.966003 365.819641,589.251770 
	C363.925262,591.247498 361.627380,593.668335 358.951599,596.487305 
	C356.167694,595.350586 353.308319,593.869080 353.300812,600.151184 
	C353.297302,603.094666 349.100891,606.033142 346.433960,608.981079 
	C346.351074,594.975281 346.638885,580.962280 347.302307,566.420654 
	C350.969482,564.882019 354.205475,563.315674 357.564453,562.979858 
	C364.163635,562.320068 366.295044,561.015076 368.025970,554.952881 
	C368.213928,554.953857 368.401917,554.954834 368.871704,554.963318 
	C370.070496,560.050415 371.421692,565.098267 371.795746,570.217529 
	C372.277008,576.804138 371.974609,583.447998 371.925415,590.528442 
M368.590332,560.802368 
	C368.205231,560.797974 367.820160,560.793579 367.435059,560.789185 
	C367.433472,560.949341 367.421021,561.248718 367.431854,561.249573 
	C367.815033,561.279541 368.200409,561.281433 368.590332,560.802368 
z"/>
<path fill="#C7C7C4" opacity="1.000000" stroke="none" 
	d="
M326.960846,785.422852 
	C327.115295,783.354492 327.402100,781.597412 327.777893,779.295105 
	C331.119873,781.178406 334.578369,783.152710 338.060089,785.085022 
	C355.155060,794.572571 374.703003,792.824341 388.747284,779.592529 
	C394.291443,774.369019 398.326324,767.546204 403.077759,761.474609 
	C403.548889,760.872498 404.224976,760.430847 405.146729,759.901550 
	C402.398010,779.001892 391.912994,792.278259 373.498627,798.304810 
	C355.579956,804.169189 340.132355,798.902527 326.960846,785.422852 
z"/>
<path fill="#C3C3C1" opacity="1.000000" stroke="none" 
	d="
M767.964050,736.490234 
	C771.120483,736.112244 774.508484,736.066772 777.891785,735.916809 
	C780.673767,735.793579 783.450317,735.546448 786.685059,735.570740 
	C789.041931,736.262451 790.928284,737.056641 792.847046,737.144592 
	C796.546997,737.314270 800.273193,736.907837 803.973572,737.073364 
	C807.339661,737.223877 810.685913,737.816162 814.040955,738.213745 
	C814.114868,737.738647 814.188721,737.263611 814.262634,736.788513 
	C817.610046,739.479248 820.857788,741.184387 825.224976,738.277954 
	C827.867615,736.519287 831.280518,735.529236 832.408325,740.435913 
	C833.561157,739.829468 834.421570,739.376892 835.281982,738.924316 
	C836.546265,740.641907 837.810486,742.359558 839.201782,744.751953 
	C839.666809,745.760254 840.004883,746.093811 840.342896,746.427368 
	C842.376404,749.904785 844.409912,753.382141 846.389038,756.766541 
	C835.218567,753.469727 824.540039,749.890564 813.640076,747.212158 
	C800.791931,744.055054 787.744324,741.713989 774.802917,738.927856 
	C772.549866,738.442749 770.394165,737.505798 767.964050,736.490234 
z"/>
<path fill="#F5F5F4" opacity="1.000000" stroke="none" 
	d="
M422.039856,244.453583 
	C418.724213,244.487289 415.890900,244.649704 413.074097,244.500809 
	C408.632141,244.266022 405.882416,241.360672 405.909363,237.207550 
	C405.935974,233.112976 408.780334,230.235657 413.324219,230.184097 
	C420.971344,230.097321 428.625336,230.110596 436.268280,230.346329 
	C440.912415,230.489578 443.810181,233.539902 443.624023,237.453888 
	C443.434509,241.438324 440.450256,244.283142 435.996887,244.416016 
	C431.511536,244.549835 427.019012,244.443665 422.039856,244.453583 
z"/>
<path fill="#F5F5F4" opacity="1.000000" stroke="none" 
	d="
M609.043091,230.127289 
	C613.859558,230.133072 618.187927,230.041092 622.509766,230.168549 
	C627.459656,230.314560 630.923157,233.493271 630.856445,237.593414 
	C630.791565,241.583694 627.570129,244.362595 622.648254,244.424606 
	C615.661987,244.512650 608.672668,244.538315 601.687073,244.430084 
	C596.868530,244.355438 593.819885,241.499359 593.723694,237.320557 
	C593.627502,233.137222 596.613953,230.360718 601.565491,230.150024 
	C603.890442,230.051102 606.222900,230.128830 609.043091,230.127289 
z"/>
<path fill="#C7C7C4" opacity="1.000000" stroke="none" 
	d="
M488.938385,786.193359 
	C478.941803,775.883728 474.385132,763.028137 472.063416,749.262878 
	C471.388550,745.261658 471.872620,741.065002 472.139587,736.324707 
	C473.816986,732.661743 475.180176,729.632019 476.810913,726.007629 
	C477.940125,726.007629 479.915039,726.007629 481.889984,726.007629 
	C483.240814,736.745056 484.591614,747.482483 485.571655,758.617126 
	C484.627899,759.263672 483.534821,759.583496 483.557678,759.751953 
	C484.226898,764.686646 485.119446,769.592346 485.734894,774.532715 
	C486.241028,778.595642 490.810211,781.509705 488.938385,786.193359 
z"/>
<path fill="#BCBCB8" opacity="1.000000" stroke="none" 
	d="
M481.963684,725.710327 
	C479.915039,726.007629 477.940125,726.007629 476.810913,726.007629 
	C475.180176,729.632019 473.816986,732.661743 472.164001,735.906738 
	C471.404480,710.598938 482.010559,690.514221 502.215027,674.927612 
	C501.621155,677.365906 501.246887,680.278564 499.698608,682.285645 
	C491.460419,692.965210 486.244110,704.890564 483.382416,718.661804 
	C482.596191,720.861450 482.329834,722.525269 482.063446,724.189026 
	C482.054779,724.597046 482.046082,725.005066 481.963684,725.710327 
z"/>
<path fill="#BCBCB8" opacity="1.000000" stroke="none" 
	d="
M501.073181,269.392548 
	C504.464233,268.733978 508.045380,268.391937 511.624023,268.025116 
	C527.742981,266.373108 540.985840,260.252686 547.749268,244.382904 
	C549.028320,241.381714 549.697693,238.120682 550.934998,234.032562 
	C551.698608,236.191116 552.254578,237.762756 552.604858,239.897675 
	C551.532532,245.771027 550.665894,251.081085 549.799316,256.391144 
	C549.799255,256.391144 549.726929,256.620911 549.284607,256.523438 
	C548.268066,257.675415 547.693848,258.924896 547.119629,260.174347 
	C547.119629,260.174347 547.072083,260.081390 546.744080,260.061188 
	C543.537659,261.778992 540.605164,263.439087 537.848755,265.352875 
	C537.501160,265.594238 538.079590,267.169220 538.229004,268.126343 
	C526.222168,276.071167 513.868713,275.860962 501.073181,269.392548 
z"/>
<path fill="#C3C3C1" opacity="1.000000" stroke="none" 
	d="
M489.120148,820.667603 
	C490.359070,820.269775 491.914276,819.707886 493.213043,820.068848 
	C518.152588,826.999573 543.104187,827.204529 568.136108,820.585510 
	C570.275452,820.019836 572.579651,820.077637 574.947754,820.188110 
	C546.562988,834.536804 517.971558,834.452759 489.120148,820.667603 
z"/>
<path fill="#B0B0AC" opacity="1.000000" stroke="none" 
	d="
M853.443481,256.472229 
	C849.751343,258.516724 846.243530,260.245087 842.631897,261.718964 
	C840.656799,262.524994 838.506042,262.900818 836.181519,263.211609 
	C839.131348,255.442596 842.051575,247.793137 845.660339,240.483582 
	C847.374512,237.011490 850.401855,234.187668 853.119446,230.939575 
	C853.502930,234.951721 853.601257,239.094452 853.234741,243.783752 
	C852.955078,245.301590 853.140259,246.272842 853.325439,247.244080 
	C853.411804,250.179398 853.498108,253.114700 853.443481,256.472229 
z"/>
<path fill="#C9C9C6" opacity="1.000000" stroke="none" 
	d="
M733.639893,632.903687 
	C732.365356,635.702637 730.738586,638.340088 728.909058,641.306335 
	C729.350342,641.575745 730.429382,642.234558 731.508484,642.893372 
	C731.443176,643.216675 731.377930,643.539917 731.312622,643.863220 
	C729.025879,643.743408 726.739136,643.623596 724.221680,643.761902 
	C715.870178,642.172729 707.749390,640.325439 699.312500,638.254822 
	C703.290283,635.973389 707.440979,632.655884 711.911316,632.147217 
	C718.923401,631.349304 726.151184,632.447205 733.639893,632.903687 
z"/>
<path fill="#C3C3C1" opacity="1.000000" stroke="none" 
	d="
M636.105591,316.539246 
	C633.646484,317.260986 631.283752,317.522736 628.641052,317.815521 
	C626.221130,320.690430 625.267212,325.708618 619.461609,325.976257 
	C620.177673,313.414764 626.622803,303.641113 635.590454,294.991058 
	C636.025513,302.012512 636.113708,309.045868 636.105591,316.539246 
z"/>
<path fill="#CFD0CE" opacity="1.000000" stroke="none" 
	d="
M488.988678,786.519104 
	C490.810211,781.509705 486.241028,778.595642 485.734894,774.532715 
	C485.119446,769.592346 484.226898,764.686646 483.557678,759.751953 
	C483.534821,759.583496 484.627899,759.263672 485.561951,759.009460 
	C490.861633,767.799194 495.800232,776.593872 500.837097,785.711426 
	C499.589172,788.678040 498.242981,791.321716 496.452606,794.837646 
	C494.160553,792.366516 491.599762,789.605652 488.988678,786.519104 
z"/>
<path fill="#DCDCDA" opacity="1.000000" stroke="none" 
	d="
M750.268555,654.354736 
	C750.318604,651.789673 750.949158,649.528931 750.953735,647.266968 
	C751.016174,616.060486 750.981323,584.853821 751.019226,553.647278 
	C751.021362,551.888733 751.447754,550.130676 752.006226,548.203979 
	C752.460449,554.510620 752.684937,560.985474 752.692749,567.460632 
	C752.726196,595.245911 752.729492,623.031372 752.571289,650.815796 
	C752.564636,651.981934 754.605957,655.228943 750.268555,654.354736 
z"/>
<path fill="#BCBCB8" opacity="1.000000" stroke="none" 
	d="
M495.967804,560.024414 
	C501.011292,560.031067 506.054749,560.037781 511.989868,560.038879 
	C514.575684,560.029785 516.269897,560.026245 517.964050,560.022705 
	C520.448669,560.186523 522.933228,560.350281 525.716248,560.778442 
	C523.906494,561.292603 521.798828,561.755676 519.690186,561.759827 
	C488.817963,561.821167 457.945557,561.841492 427.073364,561.787109 
	C425.172272,561.783752 423.272461,561.076355 421.155884,560.368774 
	C421.110718,560.003967 421.281738,559.966980 422.184784,559.981323 
	C447.267151,560.029907 471.617493,560.027161 495.967804,560.024414 
z"/>
<path fill="#C9C9C6" opacity="1.000000" stroke="none" 
	d="
M830.669312,678.898804 
	C829.543945,680.277039 827.902771,681.306213 826.720520,682.719238 
	C825.260864,684.463928 824.182678,686.527649 822.917358,688.855469 
	C816.972595,685.756531 811.050232,682.255615 804.944580,678.460327 
	C813.363892,675.084900 821.946045,672.951599 830.669312,678.898804 
z"/>
<path fill="#BCBCB8" opacity="1.000000" stroke="none" 
	d="
M835.150146,738.620483 
	C834.421570,739.376892 833.561157,739.829468 832.408325,740.435913 
	C831.280518,735.529236 827.867615,736.519287 825.224976,738.277954 
	C820.857788,741.184387 817.610046,739.479248 814.262634,736.788513 
	C814.188721,737.263611 814.114868,737.738647 814.040955,738.213745 
	C810.685913,737.816162 807.339661,737.223877 803.973572,737.073364 
	C800.273193,736.907837 796.546997,737.314270 792.847046,737.144592 
	C790.928284,737.056641 789.041931,736.262451 787.080688,735.442261 
	C793.447693,734.186584 799.874939,733.275818 806.747925,732.646851 
	C812.240601,733.669189 817.287659,734.409790 822.363098,735.154541 
	C823.259033,734.477173 824.399170,733.542053 825.614380,732.717590 
	C826.752502,731.945374 827.970154,731.290405 829.152771,730.583801 
	C829.727356,731.156311 830.301941,731.728821 830.981567,732.927673 
	C831.473083,734.015381 831.859497,734.476746 832.245911,734.938171 
	C833.169983,736.064331 834.094116,737.190491 835.150146,738.620483 
z"/>
<path fill="#B0B0AC" opacity="1.000000" stroke="none" 
	d="
M829.136780,730.411011 
	C827.970154,731.290405 826.752502,731.945374 825.614380,732.717590 
	C824.399170,733.542053 823.259033,734.477173 822.363098,735.154541 
	C817.287659,734.409790 812.240601,733.669189 807.130249,732.606140 
	C812.903137,730.406250 818.739380,728.528748 824.765808,726.354126 
	C825.321106,726.331482 825.686157,726.606079 826.085815,727.543152 
	C826.931213,728.782959 827.742126,729.360291 828.552979,729.937561 
	C828.824463,729.882629 829.013733,729.982910 829.136780,730.411011 
z"/>
<path fill="#C9C9C6" opacity="1.000000" stroke="none" 
	d="
M550.002563,256.145508 
	C550.665894,251.081085 551.532532,245.771027 552.618103,240.255096 
	C553.203796,240.453903 553.570557,240.858582 554.073547,241.655945 
	C552.875122,246.665726 551.540466,251.282806 550.002563,256.145508 
z"/>
<path fill="#C9C9C6" opacity="1.000000" stroke="none" 
	d="
M538.558594,268.053284 
	C538.079590,267.169220 537.501160,265.594238 537.848755,265.352875 
	C540.605164,263.439087 543.537659,261.778992 546.794189,260.075714 
	C544.410950,262.733704 541.649597,265.356964 538.558594,268.053284 
z"/>
<path fill="#DCDCDA" opacity="1.000000" stroke="none" 
	d="
M671.204346,602.575439 
	C670.740295,601.357361 670.077515,599.680420 670.054504,597.994690 
	C669.948975,590.287537 670.022888,582.577942 670.058899,574.391846 
	C670.085449,573.914490 670.550476,573.939392 670.781250,573.970825 
	C671.108093,583.372314 671.204224,592.742371 671.204346,602.575439 
z"/>
<path fill="#DCDCDA" opacity="1.000000" stroke="none" 
	d="
M542.983521,397.562469 
	C542.277649,396.247131 541.642944,394.501984 541.029663,392.343506 
	C541.407166,391.917450 541.763306,391.904663 542.386108,391.920471 
	C542.786804,393.676941 542.920837,395.404816 542.983521,397.562469 
z"/>
<path fill="#B0B0AC" opacity="1.000000" stroke="none" 
	d="
M850.911865,711.898193 
	C851.378601,711.147705 851.966980,710.656311 852.938660,710.052124 
	C853.478821,711.033569 853.635681,712.127869 853.895081,713.937500 
	C852.547607,713.099121 851.790588,712.628174 850.911865,711.898193 
z"/>
<path fill="#DCDCDA" opacity="1.000000" stroke="none" 
	d="
M671.296143,629.623779 
	C670.961609,627.197388 670.737854,624.324829 670.832397,621.193848 
	C671.236084,623.682861 671.321472,626.430237 671.296143,629.623779 
z"/>
<path fill="#C9C9C6" opacity="1.000000" stroke="none" 
	d="
M547.384399,260.014648 
	C547.693848,258.924896 548.268066,257.675415 549.208923,256.617096 
	C548.933472,257.823822 548.291321,258.839386 547.384399,260.014648 
z"/>
<path fill="#DCDCDA" opacity="1.000000" stroke="none" 
	d="
M853.427429,246.941620 
	C853.140259,246.272842 852.955078,245.301590 853.056885,244.225815 
	C853.405762,244.960571 853.467590,245.799866 853.427429,246.941620 
z"/>
<path fill="#C7C7C4" opacity="1.000000" stroke="none" 
	d="
M482.421936,723.970215 
	C482.329834,722.525269 482.596191,720.861450 483.243103,718.976807 
	C483.342560,720.421143 483.061493,722.086304 482.421936,723.970215 
z"/>
<path fill="#DCDCDA" opacity="1.000000" stroke="none" 
	d="
M828.347839,729.638489 
	C827.742126,729.360291 826.931213,728.782959 826.087524,727.782166 
	C826.750671,728.018921 827.446655,728.679138 828.347839,729.638489 
z"/>
<path fill="#DCDCDA" opacity="1.000000" stroke="none" 
	d="
M832.139404,734.648560 
	C831.859497,734.476746 831.473083,734.015381 831.056458,733.225098 
	C831.361816,733.383667 831.697388,733.871277 832.139404,734.648560 
z"/>
<path fill="#DCDCDA" opacity="1.000000" stroke="none" 
	d="
M670.316895,633.448242 
	C670.121155,632.961243 670.360962,632.598450 670.893311,632.084167 
	C671.041443,632.479187 670.896973,633.025818 670.316895,633.448242 
z"/>
<path fill="#DCDCDA" opacity="1.000000" stroke="none" 
	d="
M840.281677,746.052002 
	C840.004883,746.093811 839.666809,745.760254 839.193848,745.097595 
	C839.446106,745.071228 839.833252,745.373962 840.281677,746.052002 
z"/>
<path fill="#DCDCDA" opacity="1.000000" stroke="none" 
	d="
M853.267822,707.765747 
	C853.043518,707.747437 852.911743,707.458496 852.960266,707.068359 
	C853.213745,707.143066 853.287048,707.319092 853.267822,707.765747 
z"/>
<path fill="#040303" opacity="1.000000" stroke="none" 
	d="
M240.037277,505.144226 
	C266.525085,503.199707 294.086884,518.372314 299.821411,547.731384 
	C304.955109,574.014404 304.432953,600.805420 299.565948,627.152039 
	C296.070770,646.072205 285.174835,661.117249 269.674164,672.283020 
	C260.564728,678.844971 250.463623,684.030212 240.571075,689.328430 
	C240.338074,638.573303 240.360687,588.324402 240.332840,538.075500 
	C240.326752,527.098328 240.140533,516.121338 240.037277,505.144226 
z"/>
<path fill="#CFD0CE" opacity="1.000000" stroke="none" 
	d="
M240.072205,504.725830 
	C240.140533,516.121338 240.326752,527.098328 240.332840,538.075500 
	C240.360687,588.324402 240.338074,638.573303 240.222015,689.259155 
	C235.150986,692.852722 230.191498,696.009460 223.933594,699.992615 
	C223.933594,634.982178 223.933594,571.462952 224.351410,507.465240 
	C229.802017,504.978241 234.834839,502.969696 239.867645,500.961151 
	C239.947479,502.076569 240.027298,503.192017 240.072205,504.725830 
z"/>
<path fill="#C7C7C4" opacity="1.000000" stroke="none" 
	d="
M368.969574,359.969727 
	C369.415497,362.551727 369.861450,365.133728 370.307404,367.715698 
	C369.967468,367.930847 369.627533,368.145966 369.287628,368.361115 
	C369.085114,367.583344 368.882629,366.805542 368.633606,365.849060 
	C365.306213,370.062286 362.481506,373.639008 359.656799,377.215759 
	C359.322784,376.966339 358.988770,376.716919 358.654755,376.467529 
	C358.858917,377.536194 359.063080,378.604889 359.482697,380.801453 
	C357.194794,378.673065 355.771912,377.349365 355.010406,376.640930 
	C352.256104,379.387726 349.981903,381.655731 347.350067,383.962494 
	C347.009552,376.967499 347.026672,369.933746 347.444275,362.452454 
	C349.553253,363.080261 351.261719,364.155670 352.715576,365.070801 
	C353.993103,363.885040 355.208344,362.928528 356.217804,361.789642 
	C359.976685,357.548645 364.410675,358.402588 368.969574,359.969727 
z"/>
<path fill="#B0B0AC" opacity="1.000000" stroke="none" 
	d="
M336.379547,518.526428 
	C348.060974,525.310669 357.460785,534.353271 363.599487,546.659668 
	C361.213989,546.668030 359.054810,546.582336 357.054901,545.973572 
	C352.578094,544.610718 349.494812,546.110229 347.814209,550.613464 
	C347.591217,551.210938 346.643311,551.537842 346.031158,551.990051 
	C344.162598,540.842834 342.036041,529.777771 335.942841,519.473877 
	C336.151398,518.803528 336.265472,518.664978 336.379547,518.526428 
M359.518860,544.418091 
	C359.518860,544.418091 359.582275,544.525879 359.518860,544.418091 
z"/>
<path fill="#BCBCB8" opacity="1.000000" stroke="none" 
	d="
M345.994202,552.444275 
	C346.643311,551.537842 347.591217,551.210938 347.814209,550.613464 
	C349.494812,546.110229 352.578094,544.610718 357.054901,545.973572 
	C359.054810,546.582336 361.213989,546.668030 363.738159,546.986450 
	C365.434937,549.404480 366.694427,551.827209 367.989929,554.601440 
	C366.295044,561.015076 364.163635,562.320068 357.564453,562.979858 
	C354.205475,563.315674 350.969482,564.882019 347.322632,565.953247 
	C346.630615,561.642395 346.293945,557.270447 345.994202,552.444275 
z"/>
<path fill="#B0B0AC" opacity="1.000000" stroke="none" 
	d="
M347.001678,349.999969 
	C344.994263,341.287781 342.986847,332.575623 341.020142,323.396454 
	C341.060852,322.929474 341.272858,322.712219 341.272858,322.712219 
	C347.510864,329.131012 353.823029,335.480347 359.937927,342.014343 
	C361.594849,343.784790 362.655396,346.113312 363.902344,348.829651 
	C363.347290,350.432953 362.879547,351.392334 361.851715,353.500488 
	C361.605591,348.843079 352.891022,350.866058 357.481720,343.782013 
	C355.125031,344.965607 353.650848,346.084839 352.091400,347.068848 
	C350.437012,348.112762 348.701660,349.028351 347.001678,349.999969 
z"/>
<path fill="#BCBCB8" opacity="1.000000" stroke="none" 
	d="
M346.974731,350.459778 
	C348.701660,349.028351 350.437012,348.112762 352.091400,347.068848 
	C353.650848,346.084839 355.125031,344.965607 357.481720,343.782013 
	C352.891022,350.866058 361.605591,348.843079 361.851715,353.500488 
	C362.879547,351.392334 363.347290,350.432953 363.965698,349.168823 
	C365.729309,351.983398 367.342316,355.102783 368.996155,358.583191 
	C369.021851,359.115021 369.006653,359.285797 368.980530,359.713135 
	C364.410675,358.402588 359.976685,357.548645 356.217804,361.789642 
	C355.208344,362.928528 353.993103,363.885040 352.715576,365.070801 
	C351.261719,364.155670 349.553253,363.080261 347.503723,361.985107 
	C347.091064,358.283447 347.019440,354.601532 346.974731,350.459778 
z"/>
<path fill="#C3C3C1" opacity="1.000000" stroke="none" 
	d="
M239.902863,500.505554 
	C234.834839,502.969696 229.802017,504.978241 224.374359,506.997528 
	C223.959137,501.983154 223.938766,496.958038 224.353577,491.415588 
	C229.551773,490.257050 234.314804,489.615784 239.077835,488.974548 
	C239.077835,488.974548 239.017502,489.002411 239.097534,489.178345 
	C239.333801,489.626373 239.560852,489.811707 239.858673,489.910278 
	C239.885147,493.290161 239.911621,496.670074 239.902863,500.505554 
z"/>
<path fill="#B0B0AC" opacity="1.000000" stroke="none" 
	d="
M239.202393,488.607788 
	C234.314804,489.615784 229.551773,490.257050 224.392426,490.950134 
	C222.916290,485.848999 224.895035,482.730835 229.938629,481.009125 
	C233.803787,479.689728 237.425400,477.656891 241.612122,475.999390 
	C242.068893,476.057404 242.273422,476.253326 242.273407,476.253326 
	C241.291245,480.249237 240.309082,484.245148 239.202393,488.607788 
z"/>
<path fill="#B0B0AC" opacity="1.000000" stroke="none" 
	d="
M335.848663,519.134155 
	C335.783112,518.933228 335.906219,518.540222 336.204437,518.336792 
	C336.265472,518.664978 336.151398,518.803528 335.848663,519.134155 
z"/>
<path fill="#B0B0AC" opacity="1.000000" stroke="none" 
	d="
M239.805725,489.685822 
	C239.560852,489.811707 239.333801,489.626373 239.092300,489.145508 
	C239.318558,489.022247 239.567123,489.197113 239.805725,489.685822 
z"/>
<path fill="#B0B0AC" opacity="1.000000" stroke="none" 
	d="
M241.970078,475.955963 
	C242.093735,475.901917 242.316193,475.949310 242.406036,476.125000 
	C242.273422,476.253326 242.068893,476.057404 241.970078,475.955963 
z"/>
<path fill="#B0B0AC" opacity="1.000000" stroke="none" 
	d="
M340.952148,323.035400 
	C340.671478,322.944397 340.499512,322.747467 340.327545,322.550507 
	C340.550781,322.503601 340.773987,322.456665 341.135040,322.560974 
	C341.272858,322.712219 341.060852,322.929474 340.952148,323.035400 
z"/>
<path fill="#040303" opacity="1.000000" stroke="none" 
	d="
M791.883301,307.207184 
	C791.826416,351.621094 791.792969,396.035095 791.686035,440.448883 
	C791.670959,446.731201 793.383911,454.328125 790.490295,458.915253 
	C787.735107,463.283112 780.001709,464.515869 774.450928,467.113892 
	C767.537170,470.349915 760.617188,473.572479 753.242920,476.432190 
	C752.821411,435.137085 752.853516,394.210571 752.894043,353.284088 
	C752.906494,340.707214 757.286316,329.826874 766.101257,320.913574 
	C773.220825,313.714600 781.626648,308.646667 791.883301,307.207184 
z"/>
<path fill="#CECECC" opacity="1.000000" stroke="none" 
	d="
M791.934265,306.729309 
	C781.626648,308.646667 773.220825,313.714600 766.101257,320.913574 
	C757.286316,329.826874 752.906494,340.707214 752.894043,353.284088 
	C752.853516,394.210571 752.821411,435.137085 752.895996,476.519806 
	C747.707458,479.615417 742.408997,482.254822 736.282898,485.306488 
	C736.141174,482.873810 735.958740,481.172729 735.956116,479.471375 
	C735.934692,465.386475 735.945068,451.301453 735.948486,437.216492 
	C735.955017,410.361603 735.623108,383.501038 736.069092,356.653442 
	C736.491089,331.247345 748.500000,312.400299 770.704163,300.204956 
	C777.179016,296.648712 784.072144,293.853973 791.985229,290.141815 
	C791.985229,296.457245 791.985229,301.354340 791.934265,306.729309 
z"/>
<path fill="#C9C9C6" opacity="1.000000" stroke="none" 
	d="
M495.935486,559.656921 
	C471.617493,560.027161 447.267151,560.029907 422.445709,560.009277 
	C421.452515,558.800415 420.930450,557.614929 420.164856,555.880615 
	C419.551147,554.893860 419.180908,554.455933 418.810669,554.018005 
	C418.512878,553.573669 418.215088,553.129272 418.211609,552.245178 
	C422.751068,549.507324 426.996185,547.209229 431.241333,544.911194 
	C461.848419,545.277649 492.455566,545.644104 523.531372,546.005310 
	C524.182739,549.123108 522.651184,550.805847 519.687012,551.660461 
	C515.801514,552.780701 512.066406,554.528381 508.128723,555.320618 
	C505.907349,555.767456 503.416626,554.741699 501.033447,554.552063 
	C498.101837,554.318787 495.155884,554.265625 492.216095,554.134583 
	C492.005768,554.720154 491.795410,555.305725 491.585052,555.891296 
	C493.024414,557.023987 494.463806,558.156677 495.935486,559.656921 
z"/>
<path fill="#C3C3C1" opacity="1.000000" stroke="none" 
	d="
M432.612122,353.049011 
	C433.353760,356.738373 431.828888,358.917969 428.145874,357.765564 
	C424.763733,356.707275 424.277252,358.779297 423.090881,360.847992 
	C422.367523,362.109253 420.874908,362.929382 419.326477,363.930481 
	C416.597656,359.608032 414.150879,355.361389 411.993835,350.972321 
	C410.938782,348.825623 410.422699,346.414032 409.359039,343.206726 
	C417.642853,346.747559 424.941010,349.867065 432.612122,353.049011 
z"/>
<path fill="#BCBCB8" opacity="1.000000" stroke="none" 
	d="
M430.954559,544.666992 
	C426.996185,547.209229 422.751068,549.507324 418.171082,551.969971 
	C414.847595,545.696167 411.859009,539.257812 408.934387,532.410278 
	C408.998352,532.001038 409.021088,531.974182 409.021088,531.974182 
	C415.491425,537.419617 422.129913,542.572571 430.954559,544.666992 
z"/>
<path fill="#BCBCB8" opacity="1.000000" stroke="none" 
	d="
M418.887970,554.299683 
	C419.180908,554.455933 419.551147,554.893860 419.947510,555.634155 
	C419.637512,555.484802 419.301392,555.033020 418.887970,554.299683 
z"/>
<path fill="#BCBCB8" opacity="1.000000" stroke="none" 
	d="
M408.984863,532.012451 
	C408.851593,531.856567 408.731812,531.689331 408.612030,531.522095 
	C408.713440,531.570374 408.814850,531.618591 408.968689,531.820496 
	C409.021088,531.974182 408.998352,532.001038 408.984863,532.012451 
z"/>
<path fill="#C9C9C6" opacity="1.000000" stroke="none" 
	d="
M361.615295,598.541016 
	C362.057678,598.655457 362.328766,598.934326 362.578918,599.230835 
	C362.585297,599.238403 362.361694,599.440002 362.245300,599.551086 
	C361.977295,599.269958 361.709290,598.988831 361.615295,598.541016 
z"/>
<path fill="#C9C9C6" opacity="1.000000" stroke="none" 
	d="
M517.933167,559.658630 
	C516.269897,560.026245 514.575684,560.029785 512.459106,560.027954 
	C513.493530,555.764893 515.470154,555.694702 517.933167,559.658630 
z"/>
<path fill="#C7C7C4" opacity="1.000000" stroke="none" 
	d="
M368.020203,371.076050 
	C368.609802,371.583618 368.876404,372.093079 369.143005,372.602539 
	C368.400269,372.606415 367.657501,372.610321 366.914734,372.614227 
	C367.175568,372.102112 367.436401,371.589996 368.020203,371.076050 
z"/>
<path fill="#BCBCB8" opacity="1.000000" stroke="none" 
	d="
M368.587891,561.044800 
	C368.200409,561.281433 367.815033,561.279541 367.431854,561.249573 
	C367.421021,561.248718 367.433472,560.949341 367.435059,560.789185 
	C367.820160,560.793579 368.205231,560.797974 368.587891,561.044800 
z"/>
<path fill="#BCBCB8" opacity="1.000000" stroke="none" 
	d="
M359.550568,544.471985 
	C359.582275,544.525879 359.518860,544.418091 359.550568,544.471985 
z"/>
</svg>