<svg xmlns="http://www.w3.org/2000/svg" viewBox="0 0 64 64">
  <!-- Favicon: "BALA" stacked in Bebas Neue (outlines baked as paths), white on dark badge -->
  <rect x="0" y="0" width="64" height="64" rx="14" fill="#111111"/>
  <g fill="#ffffff">
    <g transform="translate(19.06,30.50) scale(0.0321,-0.0321)"><path d="M41 700H207Q292 700 331.0 660.5Q370 621 370 539V511Q370 457 352.5 423.0Q335 389 299 374V372Q381 344 381 226V166Q381 85 338.5 42.5Q296 0 214 0H41ZM194 415Q227 415 243.5 432.0Q260 449 260 489V528Q260 566 246.5 583.0Q233 600 204 600H151V415ZM214 100Q243 100 257.0 115.5Q271 131 271 169V230Q271 278 254.5 296.5Q238 315 200 315H151V100ZM530 700H679L793 0H683L663 139V137H538L518 0H416ZM650 232 601 578H599L551 232Z"/></g>
    <g transform="translate(20.03,56.00) scale(0.0321,-0.0321)"><path d="M41 700H151V100H332V0H41ZM470 700H619L733 0H623L603 139V137H478L458 0H356ZM590 232 541 578H539L491 232Z"/></g>
  </g>
</svg>
